<svg id="Layer_1" data-name="Layer 1" xmlns="http://www.w3.org/2000/svg" viewBox="0 0 1572.64 354.05"><defs><style>.cls-1{fill:#656565;}.cls-2{fill:#07d2d9;fill-rule:evenodd;}.cls-3{fill:#3fabff;}.cls-4{fill:#b46fd8;}.cls-5{fill:#817ae5;}.cls-6{fill:#39e5b2;}</style></defs><title>logo</title><path class="cls-1" d="M1746.54,539.05c-.32,6-.79,12-.9,18-.12,5.64,0,11.29.22,16.93.09,2.72-1,3.68-3.69,3.64-8.67-.11-17.33-.16-26,0-3.24.07-4.27-.94-4.24-4.22q.21-29.53,0-59.09a83.43,83.43,0,0,0-1.11-16c-2.29-11.63-12.6-18.83-24.34-17.62-12.6,1.29-20.36,9.69-20.48,22.63-.15,23-.06,45.94-.08,68.9,0,5.18,0,5.18-5.22,5.18-7.87,0-15.75-.16-23.63.08-3.53.1-4.48-1.18-4.48-4.55q.12-58.67,0-117.33c0-3.46,1.31-4.56,4.68-4.49,7.88.18,15.75.21,23.63,0,3.74-.12,4.85,1.57,5,4.86.08,2.64.48,5.26.74,7.87l1.15.29c1-.94,2-1.84,3-2.82,12.83-13.47,28.36-16.3,45.47-10.72,16.59,5.42,25.51,17.67,27.78,34.77.79,6,1,12,1.57,18,.27,3,.63,6,1,8.93Z" transform="translate(-173.9 -318.95)"/><path class="cls-1" d="M1447.82,469.64h35.83c2.37,0,4.26.17,4.73,3.25,4,24.63,2.36,48.47-11,70.25S1444,576.58,1418.87,580c-31.65,4.24-58.21-5.62-79.65-29.07-11.13-12.17-17-27-19.32-43.14-2.88-20.09-1.4-39.76,7.53-58.39,13.34-27.86,36.36-42.78,66-47.78,19-3.2,37.91-.95,56.23,5.14,6,2,6,2.18,6,8.31v26c0,4.14-.45,4.44-4.35,2.9-14.8-5.83-29.94-9.12-46-8.39-24.37,1.11-42.45,15.92-49.34,40.68-9.84,35.37,15.95,63.1,37.43,68,17.52,4,33.67.66,47.21-11.71,7.43-6.78,10.62-15.76,11.33-25.62.3-4.06-.78-5.09-4.94-5.1-12,0-23.9-.11-35.84.05-3.15.05-4.1-1-4-4.07.16-7.88.23-15.76,0-23.63-.12-3.58,1.3-4.56,4.54-4.53C1423.67,469.72,1435.75,469.65,1447.82,469.64Z" transform="translate(-173.9 -318.95)"/><path class="cls-1" d="M846.23,581.15c-6.89-3-13.06-5.47-19-8.35-3.41-1.65-6.16-1.47-9.56.26-25.29,12.82-50.77,12.9-75.58-.84-18-10-26.7-26.41-27.16-46.7-.58-26.11-.43-52.24-.38-78.35,0-8.21-1.57-15.76-5.76-22.9-3.56-6.08-6.53-12.5-10.06-19.34,1.57-.17,2.68-.38,3.77-.39,14.18,0,28.36.1,42.54-.08,3.39,0,4.12,1.11,4.11,4.28-.09,36.36-.23,72.71,0,109.07.09,11.87,4.66,22.06,16.1,27.17,12.13,5.41,24.37,5,35.37-3.15,7.55-5.62,10.8-14,10.9-23q.45-39.18,0-78.36c-.06-4.49-2-9.18-3.89-13.39-3.34-7.34-7.35-14.38-11.36-22.06,1.78-.18,2.88-.38,3.94-.39,14,0,28.08.07,42.11-.06,3.15,0,4.34.84,4.33,4.2q-.14,84.06-.08,168.13C846.53,578,846.38,579.07,846.23,581.15Z" transform="translate(-173.9 -318.95)"/><path class="cls-1" d="M706,446.44c-7.7-2.62-15.33-5.84-23.26-7.79-30.79-7.56-61.34,13.4-66.12,45-4.46,29.41,15,57.47,44,63.13,12.53,2.43,24.53-.6,36-5.41,3.28-1.37,4.72-1,6.3,2.2,6,12.06,12.33,24,19.12,37.09-4.67-1.81-8.27-3.51-12-4.53-2.22-.61-5.11-.91-7.09,0-37.4,17.41-105.81.06-119.8-61.35-7.69-33.76-.08-63.28,24-87.92,15-15.29,34.13-22.61,55.27-24.61,5.83-.54,11.77-.06,17.65,0,3.09.05,5.62,1.21,7,4.17q9.45,19.86,18.91,39.74C706.08,446.3,706,446.57,706,446.44Z" transform="translate(-173.9 -318.95)"/><path class="cls-1" d="M913,403.77h4.64c13.12,0,26.25.13,39.39-.08,3.77-.06,4.86,1,4.85,4.82q-.18,78.76-.08,157.55c0,2.23-.17,4.47,0,6.69.31,3.48-.79,4.91-4.58,4.77-8-.29-16-.27-24,0-4,.14-6.59-1.27-8.85-4.52-11.64-16.83-23.44-33.55-35.19-50.3q-14.23-20.3-28.52-40.55a17.35,17.35,0,0,1-3.42-10.6c.13-17.72.06-35.45.07-53.16v-4.6l69.38,100.77,1.17-.32a25.55,25.55,0,0,0,.38-3.15V444.92c0-9.32-1.73-18.19-6.91-26.23C918.43,414.21,916.09,409.35,913,403.77Z" transform="translate(-173.9 -318.95)"/><path class="cls-1" d="M1621.4,494.18c-6.13-26.86-24.19-43.43-51.92-46-19.19-1.75-37,3.25-50.61,17.67-16.88,17.83-22.38,39.23-17.45,63.23,4.5,21.89,16,38.26,37.61,46.22a81.24,81.24,0,0,0,43,3.94c8.42-1.52,16.58-4.55,24.79-7.17,1.33-.43,3.15-2.16,3.22-3.34.27-8.89.15-17.78.15-27.52-2.83.62-4.86,1-6.86,1.51-13.39,3.4-26.78,6.35-40.69,5.87-14.71-.52-23.55-6.65-26.94-18.55-1.58-5.59-1.19-6.17,4.52-6.17,25.21,0,50.41-.08,75.62.07,3.48,0,4.82-1.14,5.52-4.45A60.18,60.18,0,0,0,1621.4,494.18ZM1585.3,499c-7.74-.14-15.49,0-23.23,0s-15.5,0-23.24,0c-4.44,0-4.92-.78-3.55-4.84,4.08-12.23,16.17-19.85,29.61-18.7,7.95.67,15.42,2.71,20.31,9.52,2,2.75,2.94,6.3,3.94,9.64,1,3.14-.5,4.49-3.84,4.43Z" transform="translate(-173.9 -318.95)"/><path class="cls-1" d="M1094.19,494.18c-6.13-26.86-24.19-43.43-51.92-46-19.19-1.75-37,3.25-50.62,17.67-16.87,17.83-22.38,39.23-17.44,63.23,4.5,21.89,16,38.26,37.61,46.22a81.24,81.24,0,0,0,42.95,3.94c8.42-1.52,16.58-4.55,24.78-7.17,1.34-.43,3.16-2.16,3.23-3.34.27-8.89.15-17.78.15-27.52-2.83.62-4.86,1-6.86,1.51-13.39,3.4-26.78,6.35-40.69,5.87-14.71-.52-23.55-6.65-27-18.55-1.57-5.59-1.18-6.17,4.53-6.17,25.2,0,50.41-.08,75.62.07,3.48,0,4.82-1.14,5.52-4.45A60.18,60.18,0,0,0,1094.19,494.18Zm-36.1,4.84c-7.75-.14-15.49,0-23.23,0s-15.5,0-23.24,0c-4.44,0-4.92-.78-3.56-4.84,4.09-12.23,16.18-19.85,29.62-18.7,8,.67,15.42,2.71,20.31,9.52,2,2.75,2.94,6.3,3.93,9.64,1,3.14-.49,4.49-3.83,4.43Z" transform="translate(-173.9 -318.95)"/><path class="cls-1" d="M1092.48,451.42h5c9.19-.06,18.38,0,27.57-.27,4.14-.14,6.83,1.15,9,4.82,5.37,9.15,11.1,18.12,16.7,27.13.94,1.52,2,3,3.36,5.1,1.17-1.63,2-2.69,2.73-3.84,6.06-10,12-20,18.24-29.87,1-1.58,3.35-3.23,5.11-3.28,11-.3,22.06-.15,33.09-.13a19.44,19.44,0,0,1,2.29.34c-.83,1.47-1.4,2.6-2.09,3.65-11.69,17.89-23.31,35.84-35.17,53.62-2.57,3.85-2.5,6.79.07,10.64,12,18,23.75,36.18,35.57,54.3.63,1,1.18,2,2.06,3.45-1.53.13-2.63.3-3.71.31-10.11,0-20.22-.1-30.33.08a7.13,7.13,0,0,1-7-3.94c-5.85-9.94-11.86-19.8-17.83-29.67-.79-1.28-1.72-2.47-3-4.28-1.33,1.95-2.32,3.27-3.15,4.67-6,9.83-12.17,19.61-18,29.55a7.05,7.05,0,0,1-7,3.9c-11-.16-22-.07-33.8-.07,1.07-1.85,1.69-3.08,2.44-4.23,11.81-18.12,23.63-36.24,35.64-54.25,2.51-3.77,2.41-6.64,0-10.33C1117.69,490.06,1105.41,471.16,1092.48,451.42Z" transform="translate(-173.9 -318.95)"/><path class="cls-1" d="M1277.56,414.63v5.18c0,8.67.11,17.33,0,26-.06,3.3,1.3,4.42,4.39,4.48,4.46.09,8.91.55,13.39.63,2.63.05,3.76.91,3.69,3.7-.15,6.43-.18,12.87,0,19.29.09,3-1.23,4.41-4,4.59-3.53.22-7.09.27-10.6.46-5.58.32-6.59,1.37-6.59,6.94v86.23c0,5.28,0,5.28-5.44,5.29-7.74,0-15.48-.15-23.23.06-3.35.1-4.2-1.14-4.2-4.32.1-29.4.06-58.8,0-88.23,0-5.34-.44-5.71-5.83-6a88.93,88.93,0,0,1-10.56-.85,4,4,0,0,1-2.63-2.81c-.23-7.21-.11-14.43-.15-21.65,0-2.27,1.2-2.94,3.23-2.92,4.19,0,8.4-.1,12.6,0,3.43.08,5-1.18,4.88-4.86-.22-6.81-.15-13.64,0-20.48,0-1.28.93-3.42,1.82-3.66C1257.77,419.31,1267.28,417.09,1277.56,414.63Z" transform="translate(-173.9 -318.95)"/><path id="line" class="cls-2" d="M192.71,320.55h4.73c10.25,0,18.56,8.62,18.56,19.26V651.66c0,10.63-8.31,19.26-18.56,19.26h-4.73c-10.25,0-18.56-8.63-18.56-19.26h0V339.81C174.15,329.17,182.46,320.55,192.71,320.55Z" transform="translate(-173.9 -318.95)"/><path class="cls-3" d="M337.21,509.69h0a20.93,20.93,0,0,1,0,29.59L209.62,666.87a20.93,20.93,0,0,1-29.59,0h0a20.92,20.92,0,0,1,0-29.6L307.61,509.69A20.92,20.92,0,0,1,337.21,509.69Z" transform="translate(-173.9 -318.95)"/><path class="cls-4" d="M521,325.08h0a20.92,20.92,0,0,1,0,29.6L393.44,482.26a20.93,20.93,0,0,1-29.6,0h0a20.94,20.94,0,0,1,0-29.6L491.43,325.08A20.93,20.93,0,0,1,521,325.08Z" transform="translate(-173.9 -318.95)"/><path class="cls-5" d="M337.21,482.27h0a20.93,20.93,0,0,1-29.6,0L180,354.68a20.92,20.92,0,0,1,0-29.6h0a20.93,20.93,0,0,1,29.59,0L337.21,452.67A20.94,20.94,0,0,1,337.21,482.27Z" transform="translate(-173.9 -318.95)"/><path class="cls-6" d="M521,666.87h0a20.93,20.93,0,0,1-29.59,0L363.84,539.28a20.93,20.93,0,0,1,0-29.59h0a20.92,20.92,0,0,1,29.6,0L521,637.27A20.92,20.92,0,0,1,521,666.87Z" transform="translate(-173.9 -318.95)"/></svg>